<svg xmlns="http://www.w3.org/2000/svg" width="56" height="21.965" viewBox="0 0 56 21.965">
  <g id="language-charge" transform="translate(-1768 -37)">
    <text id="UK" transform="translate(1803 54)" fill="#717171" font-size="16" font-family="SegoeUI, Segoe UI"><tspan x="0" y="0">UK</tspan></text>
    <g id="_002-brazil" data-name="002-brazil" transform="translate(1768.171 38)">
      <path id="Caminho_100" data-name="Caminho 100" d="M29.445,88.275H2.384A2.384,2.384,0,0,0,0,90.659v16.086a2.384,2.384,0,0,0,2.384,2.384H29.445a2.384,2.384,0,0,0,2.384-2.384V90.659A2.384,2.384,0,0,0,29.445,88.275Z" transform="translate(0 -88.275)" fill="#73af00"/>
      <path id="Caminho_101" data-name="Caminho 101" d="M72.946,134l-11.566,7.04a.549.549,0,0,0,0,.938l11.566,7.04a.549.549,0,0,0,.571,0l11.566-7.04a.549.549,0,0,0,0-.938L73.516,134A.549.549,0,0,0,72.946,134Z" transform="translate(-57.316 -131.083)" fill="#ffe15a"/>
      <ellipse id="Elipse_21" data-name="Elipse 21" cx="4.39" cy="4.39" rx="4.39" ry="4.39" transform="translate(11.524 6.037)" fill="#41479b"/>
      <g id="Grupo_128" data-name="Grupo 128" transform="translate(11.675 8.176)">
        <path id="Caminho_102" data-name="Caminho 102" d="M188.268,219.8a4.358,4.358,0,0,0-.473,1.124,11.376,11.376,0,0,1,8.325,2.721,4.357,4.357,0,0,0,.285-1.214A12.538,12.538,0,0,0,188.268,219.8Z" transform="translate(-187.795 -219.801)" fill="#f5f5f5"/>
        <path id="Caminho_103" data-name="Caminho 103" d="M249.417,279.585l.117.35.369,0a.05.05,0,0,1,.029.09l-.3.22.111.352a.05.05,0,0,1-.076.056l-.3-.215-.3.215a.05.05,0,0,1-.076-.056l.111-.352-.3-.22a.05.05,0,0,1,.029-.09l.369,0,.117-.35A.05.05,0,0,1,249.417,279.585Z" transform="translate(-244.995 -275.836)" fill="#f5f5f5"/>
        <path id="Caminho_104" data-name="Caminho 104" d="M277.929,294.461l.05.151h.159a.021.021,0,0,1,.013.039l-.128.094.048.152a.021.021,0,0,1-.033.024l-.129-.092-.129.092a.021.021,0,0,1-.033-.024l.048-.152-.128-.094a.021.021,0,0,1,.013-.039h.159l.05-.151A.022.022,0,0,1,277.929,294.461Z" transform="translate(-272.071 -289.806)" fill="#f5f5f5"/>
        <path id="Caminho_105" data-name="Caminho 105" d="M244.843,269.169l.05.151h.159a.021.021,0,0,1,.013.039l-.128.094.048.152a.021.021,0,0,1-.033.024l-.129-.092-.129.092a.021.021,0,0,1-.033-.024l.048-.152-.128-.094a.021.021,0,0,1,.013-.039h.159l.05-.151A.022.022,0,0,1,244.843,269.169Z" transform="translate(-241.042 -266.086)" fill="#f5f5f5"/>
        <path id="Caminho_106" data-name="Caminho 106" d="M200.035,266.226l.05.151h.159a.021.021,0,0,1,.013.039l-.128.094.048.152a.021.021,0,0,1-.033.024l-.129-.092-.129.092a.021.021,0,0,1-.033-.024l.048-.152-.128-.094a.021.021,0,0,1,.013-.039h.159l.05-.151A.022.022,0,0,1,200.035,266.226Z" transform="translate(-199.019 -263.326)" fill="#f5f5f5"/>
        <path id="Caminho_107" data-name="Caminho 107" d="M237.519,293.625l.05.151h.159a.021.021,0,0,1,.013.039l-.128.094.048.152a.021.021,0,0,1-.033.024l-.129-.092-.129.092a.021.021,0,0,1-.033-.024l.048-.152-.128-.094a.021.021,0,0,1,.013-.039h.159l.05-.151A.022.022,0,0,1,237.519,293.625Z" transform="translate(-234.173 -289.022)" fill="#f5f5f5"/>
        <path id="Caminho_108" data-name="Caminho 108" d="M217.643,264.573l.041.123h.13a.018.018,0,0,1,.01.032l-.1.077.039.124a.018.018,0,0,1-.027.02l-.106-.076-.106.076a.018.018,0,0,1-.027-.02l.039-.124-.1-.077a.018.018,0,0,1,.01-.032h.13l.041-.123A.018.018,0,0,1,217.643,264.573Z" transform="translate(-215.58 -261.778)" fill="#f5f5f5"/>
        <path id="Caminho_109" data-name="Caminho 109" d="M279.632,223.566l.051.154h.163a.022.022,0,0,1,.013.04l-.131.1.049.155a.022.022,0,0,1-.034.024l-.132-.095-.132.095a.022.022,0,0,1-.034-.024l.049-.155-.131-.1a.022.022,0,0,1,.013-.04h.163l.051-.154A.022.022,0,0,1,279.632,223.566Z" transform="translate(-273.663 -223.318)" fill="#f5f5f5"/>
        <path id="Caminho_110" data-name="Caminho 110" d="M203.665,252.434l.041.123h.13a.018.018,0,0,1,.01.032l-.1.077.039.124a.018.018,0,0,1-.027.02l-.106-.076-.106.076a.018.018,0,0,1-.027-.02l.039-.124-.1-.077a.018.018,0,0,1,.01-.032h.13l.041-.123A.017.017,0,0,1,203.665,252.434Z" transform="translate(-202.47 -250.394)" fill="#f5f5f5"/>
        <path id="Caminho_111" data-name="Caminho 111" d="M212.042,280.307l.062.187.2,0a.027.027,0,0,1,.016.048l-.158.117.059.188a.027.027,0,0,1-.041.03l-.16-.115-.16.115a.027.027,0,0,1-.041-.03l.059-.188-.158-.117a.027.027,0,0,1,.016-.048l.2,0,.062-.187A.027.027,0,0,1,212.042,280.307Z" transform="translate(-210.219 -276.528)" fill="#f5f5f5"/>
        <path id="Caminho_112" data-name="Caminho 112" d="M291.714,295.141l.039.118h.124a.017.017,0,0,1,.01.03l-.1.074.037.118a.017.017,0,0,1-.026.019l-.1-.072-.1.072a.017.017,0,0,1-.026-.019l.037-.118-.1-.074a.017.017,0,0,1,.01-.03h.124l.039-.118A.017.017,0,0,1,291.714,295.141Z" transform="translate(-285.056 -290.446)" fill="#f5f5f5"/>
        <path id="Caminho_113" data-name="Caminho 113" d="M297.783,280.661l.05.151h.159a.021.021,0,0,1,.013.039l-.128.094.048.152a.021.021,0,0,1-.033.024l-.129-.092-.129.092a.021.021,0,0,1-.033-.024l.048-.152-.128-.094a.021.021,0,0,1,.013-.039h.159l.05-.151A.022.022,0,0,1,297.783,280.661Z" transform="translate(-290.691 -276.864)" fill="#f5f5f5"/>
      </g>
    </g>
    <g id="_003-spain" data-name="003-spain" transform="translate(1768 38)">
      <g id="Grupo_129" data-name="Grupo 129" transform="translate(0 0)">
        <path id="Caminho_114" data-name="Caminho 114" d="M0,355.12a2.4,2.4,0,0,0,2.4,2.4H29.6a2.4,2.4,0,0,0,2.4-2.4V353.1H0Z" transform="translate(0 -336.551)" fill="#c8414b"/>
        <path id="Caminho_115" data-name="Caminho 115" d="M29.6,88.276H2.4a2.4,2.4,0,0,0-2.4,2.4V92.69H32V90.673A2.4,2.4,0,0,0,29.6,88.276Z" transform="translate(0 -88.276)" fill="#c8414b"/>
      </g>
      <rect id="Retângulo_53" data-name="Retângulo 53" width="32" height="12.138" transform="translate(0 4.414)" fill="#ffd250"/>
      <path id="Caminho_116" data-name="Caminho 116" d="M209.146,218.758l.468-2.105a.31.31,0,0,0-.3-.378h-.33a.31.31,0,0,0-.3.378Z" transform="translate(-195.629 -208.275)" fill="#c8414b"/>
      <rect id="Retângulo_54" data-name="Retângulo 54" width="1.103" height="4.689" transform="translate(12.966 9.379)" fill="#f5f5f5"/>
      <rect id="Retângulo_55" data-name="Retângulo 55" width="1.655" height="0.552" transform="translate(12.689 8.828)" fill="#fab446"/>
      <g id="Grupo_130" data-name="Grupo 130" transform="translate(4.766 8)">
        <rect id="Retângulo_56" data-name="Retângulo 56" width="2.759" height="0.552" transform="translate(6.82 2.483)" fill="#c8414b"/>
        <path id="Caminho_117" data-name="Caminho 117" d="M204.689,274.758l-1.655-.552v-.552l1.655.552Z" transform="translate(-195.11 -270.069)" fill="#c8414b"/>
        <path id="Caminho_118" data-name="Caminho 118" d="M76.732,218.758l.468-2.105a.31.31,0,0,0-.3-.378h-.33a.311.311,0,0,0-.3.378Z" transform="translate(-76.257 -216.275)" fill="#c8414b"/>
      </g>
      <path id="Caminho_119" data-name="Caminho 119" d="M106.483,229.517a.552.552,0,0,0-.552.552v3.586c0,.67.626,1.931,2.759,1.931s2.759-1.261,2.759-1.931v-3.586a.552.552,0,0,0-.552-.552Z" transform="translate(-99.31 -220.689)" fill="#f5f5f5"/>
      <g id="Grupo_131" data-name="Grupo 131" transform="translate(6.621 8.828)">
        <path id="Caminho_120" data-name="Caminho 120" d="M108.69,232.276h-2.759v-2.207a.552.552,0,0,1,.552-.552h2.207Z" transform="translate(-105.931 -229.517)" fill="#c8414b"/>
        <path id="Caminho_121" data-name="Caminho 121" d="M150.069,273.655h2.759v1.379a1.379,1.379,0,0,1-1.379,1.379h0a1.379,1.379,0,0,1-1.379-1.379Z" transform="translate(-147.31 -270.896)" fill="#c8414b"/>
      </g>
      <path id="Caminho_122" data-name="Caminho 122" d="M105.931,273.655h2.759v1.379a1.379,1.379,0,0,1-1.379,1.379h0a1.379,1.379,0,0,1-1.379-1.379Z" transform="translate(-99.31 -262.069)" fill="#fab446"/>
      <g id="Grupo_132" data-name="Grupo 132" transform="translate(7.172 11.586)">
        <path id="Caminho_123" data-name="Caminho 123" d="M132.965,276.132v-2.477h-.552v2.731A1.365,1.365,0,0,0,132.965,276.132Z" transform="translate(-131.31 -273.655)" fill="#c8414b"/>
        <path id="Caminho_124" data-name="Caminho 124" d="M115.31,276.386v-2.731h-.552v2.477A1.366,1.366,0,0,0,115.31,276.386Z" transform="translate(-114.758 -273.655)" fill="#c8414b"/>
      </g>
      <rect id="Retângulo_57" data-name="Retângulo 57" width="1.655" height="0.552" transform="translate(7.173 10.483)" fill="#ffb441"/>
      <g id="Grupo_133" data-name="Grupo 133" transform="translate(7.173 9.379)">
        <rect id="Retângulo_58" data-name="Retângulo 58" width="1.655" height="0.552" fill="#fab446"/>
        <rect id="Retângulo_59" data-name="Retângulo 59" width="1.103" height="0.999" transform="translate(0.276 0.328)" fill="#fab446"/>
      </g>
      <rect id="Retângulo_60" data-name="Retângulo 60" width="1.103" height="4.689" transform="translate(4.689 9.379)" fill="#f5f5f5"/>
      <g id="Grupo_134" data-name="Grupo 134" transform="translate(4.414 8.828)">
        <rect id="Retângulo_61" data-name="Retângulo 61" width="1.655" height="0.552" transform="translate(0 4.966)" fill="#fab446"/>
        <rect id="Retângulo_62" data-name="Retângulo 62" width="1.655" height="0.552" fill="#fab446"/>
      </g>
      <rect id="Retângulo_63" data-name="Retângulo 63" width="2.207" height="0.552" transform="translate(4.138 14.345)" fill="#5064aa"/>
      <rect id="Retângulo_64" data-name="Retângulo 64" width="1.655" height="0.552" transform="translate(12.966 13.793)" fill="#fab446"/>
      <rect id="Retângulo_65" data-name="Retângulo 65" width="2.207" height="0.552" transform="translate(12.414 14.345)" fill="#5064aa"/>
      <rect id="Retângulo_66" data-name="Retângulo 66" width="3.31" height="0.552" transform="translate(7.724 8.276)" fill="#fab446"/>
      <rect id="Retângulo_67" data-name="Retângulo 67" width="0.552" height="1.655" transform="translate(9.104 6.621)" fill="#ffb441"/>
      <g id="Grupo_135" data-name="Grupo 135" transform="translate(6.897 5.793)">
        <path id="Caminho_125" data-name="Caminho 125" d="M128.828,182.621a.828.828,0,1,1,.828-.828A.828.828,0,0,1,128.828,182.621Zm0-1.1a.276.276,0,1,0,.276.276A.276.276,0,0,0,128.828,181.518Z" transform="translate(-126.897 -180.966)" fill="#f5f5f5"/>
        <path id="Caminho_126" data-name="Caminho 126" d="M146.484,182.621a.828.828,0,1,1,.828-.828A.828.828,0,0,1,146.484,182.621Zm0-1.1a.276.276,0,1,0,.276.276A.276.276,0,0,0,146.484,181.518Z" transform="translate(-143.449 -180.966)" fill="#f5f5f5"/>
        <path id="Caminho_127" data-name="Caminho 127" d="M164.139,191.449a.828.828,0,1,1,.828-.828A.829.829,0,0,1,164.139,191.449Zm0-1.1a.276.276,0,1,0,.276.276A.276.276,0,0,0,164.139,190.346Z" transform="translate(-160.001 -189.242)" fill="#f5f5f5"/>
        <path id="Caminho_128" data-name="Caminho 128" d="M111.173,191.449a.828.828,0,1,1,.828-.828A.828.828,0,0,1,111.173,191.449Zm0-1.1a.276.276,0,1,0,.276.276A.276.276,0,0,0,111.173,190.346Z" transform="translate(-110.345 -189.242)" fill="#f5f5f5"/>
      </g>
      <path id="Caminho_129" data-name="Caminho 129" d="M160,283.035v.276a.276.276,0,1,1-.552,0v-.276H160m.552-.552H158.9v.828a.828.828,0,1,0,1.655,0v-.828Z" transform="translate(-148.965 -270.345)" fill="#fab446"/>
      <path id="Caminho_130" data-name="Caminho 130" d="M163.862,240h0a.552.552,0,0,1-.552-.552V238.9a.552.552,0,0,1,.552-.552h0a.552.552,0,0,1,.552.552v.552A.552.552,0,0,1,163.862,240Z" transform="translate(-153.103 -228.965)" fill="#ffa0d2"/>
      <ellipse id="Elipse_22" data-name="Elipse 22" cx="0.828" cy="0.828" rx="0.828" ry="0.828" transform="translate(8.552 10.758)" fill="#5064aa"/>
      <rect id="Retângulo_68" data-name="Retângulo 68" width="0.552" height="1.655" transform="translate(9.104 5.517)" fill="#fab446"/>
      <path id="Caminho_131" data-name="Caminho 131" d="M115.31,195.862l-.552-.552.323-.323a2.664,2.664,0,0,1,1.884-.78h0a2.664,2.664,0,0,1,1.884.78l.323.323-.552.552Z" transform="translate(-107.586 -187.586)" fill="#c8414b"/>
      <g id="Grupo_136" data-name="Grupo 136" transform="translate(8 7.448)">
        <ellipse id="Elipse_23" data-name="Elipse 23" cx="0.276" cy="0.276" rx="0.276" ry="0.276" transform="translate(1.104)" fill="#ffd250"/>
        <ellipse id="Elipse_24" data-name="Elipse 24" cx="0.276" cy="0.276" rx="0.276" ry="0.276" fill="#ffd250"/>
        <ellipse id="Elipse_25" data-name="Elipse 25" cx="0.276" cy="0.276" rx="0.276" ry="0.276" transform="translate(2.207)" fill="#ffd250"/>
      </g>
      <g id="Grupo_137" data-name="Grupo 137" transform="translate(4.414 10.483)">
        <rect id="Retângulo_69" data-name="Retângulo 69" width="2.759" height="0.552" fill="#c8414b"/>
        <path id="Caminho_132" data-name="Caminho 132" d="M70.621,274.758l1.655-.552v-.552l-1.655.552Z" transform="translate(-70.621 -272.552)" fill="#c8414b"/>
      </g>
    </g>
    <g id="_001-united-kingdom" data-name="001-united-kingdom" transform="translate(1768.148 38)">
      <path id="Caminho_93" data-name="Caminho 93" d="M29.467,88.276H2.385A2.385,2.385,0,0,0,0,90.661v16.1a2.385,2.385,0,0,0,2.385,2.385H29.467a2.385,2.385,0,0,0,2.385-2.385v-16.1A2.385,2.385,0,0,0,29.467,88.276Z" transform="translate(0 -88.276)" fill="#41479b"/>
      <path id="Caminho_94" data-name="Caminho 94" d="M31.819,90.266a2.386,2.386,0,0,0-2.352-1.991h-.621L18.672,94.941V88.275H13.18v6.666L3.006,88.275H2.385A2.386,2.386,0,0,0,.033,90.266l8.7,5.7H0v5.492H8.729l-8.7,5.7a2.386,2.386,0,0,0,2.352,1.991h.621l10.174-6.666v6.666h5.492v-6.666l10.174,6.666h.621a2.386,2.386,0,0,0,2.352-1.991l-8.7-5.7h8.729V95.963H23.123Z" transform="translate(0 -88.275)" fill="#f5f5f5"/>
      <g id="Grupo_127" data-name="Grupo 127" transform="translate(0 0)">
        <path id="Caminho_95" data-name="Caminho 95" d="M17.574,88.276h-3.3v8.787H0v3.3H14.278v8.787h3.3v-8.787H31.852v-3.3H17.574Z" transform="translate(0 -88.276)" fill="#ff4b55"/>
        <path id="Caminho_96" data-name="Caminho 96" d="M10.193,307.673,21.8,300.138H19.783L9.224,306.992A2.389,2.389,0,0,0,10.193,307.673Z" transform="translate(-8.65 -286.958)" fill="#ff4b55"/>
        <path id="Caminho_97" data-name="Caminho 97" d="M315.977,300.138H313.96l11.243,7.3a2.4,2.4,0,0,0,.764-.813Z" transform="translate(-294.428 -286.958)" fill="#ff4b55"/>
        <path id="Caminho_98" data-name="Caminho 98" d="M4.049,96.69l9.813,6.37h2.017L4.76,95.842A2.4,2.4,0,0,0,4.049,96.69Z" transform="translate(-3.797 -95.371)" fill="#ff4b55"/>
        <path id="Caminho_99" data-name="Caminho 99" d="M302.155,98.169,312.733,91.3a2.389,2.389,0,0,0-.977-.676l-11.619,7.542Z" transform="translate(-281.466 -90.481)" fill="#ff4b55"/>
      </g>
    </g>
  </g>
</svg>
