<svg xmlns="http://www.w3.org/2000/svg" width="56" height="21.965" viewBox="0 0 56 21.965">
  <g id="language-charge" transform="translate(-1768 -37)">
    <text id="BR" transform="translate(1803 54)" fill="#717171" font-size="16" font-family="SegoeUI, Segoe UI"><tspan x="0" y="0">BR</tspan></text>
    <g id="_002-brazil" data-name="002-brazil" transform="translate(1768.171 38)">
      <path id="Caminho_100" data-name="Caminho 100" d="M29.445,88.275H2.384A2.384,2.384,0,0,0,0,90.659v16.086a2.384,2.384,0,0,0,2.384,2.384H29.445a2.384,2.384,0,0,0,2.384-2.384V90.659A2.384,2.384,0,0,0,29.445,88.275Z" transform="translate(0 -88.275)" fill="#73af00"/>
      <path id="Caminho_101" data-name="Caminho 101" d="M72.946,134l-11.566,7.04a.549.549,0,0,0,0,.938l11.566,7.04a.549.549,0,0,0,.571,0l11.566-7.04a.549.549,0,0,0,0-.938L73.516,134A.549.549,0,0,0,72.946,134Z" transform="translate(-57.316 -131.083)" fill="#ffe15a"/>
      <ellipse id="Elipse_21" data-name="Elipse 21" cx="4.39" cy="4.39" rx="4.39" ry="4.39" transform="translate(11.524 6.037)" fill="#41479b"/>
      <g id="Grupo_128" data-name="Grupo 128" transform="translate(11.675 8.176)">
        <path id="Caminho_102" data-name="Caminho 102" d="M188.268,219.8a4.358,4.358,0,0,0-.473,1.124,11.376,11.376,0,0,1,8.325,2.721,4.357,4.357,0,0,0,.285-1.214A12.538,12.538,0,0,0,188.268,219.8Z" transform="translate(-187.795 -219.801)" fill="#f5f5f5"/>
        <path id="Caminho_103" data-name="Caminho 103" d="M249.417,279.585l.117.35.369,0a.05.05,0,0,1,.029.09l-.3.22.111.352a.05.05,0,0,1-.076.056l-.3-.215-.3.215a.05.05,0,0,1-.076-.056l.111-.352-.3-.22a.05.05,0,0,1,.029-.09l.369,0,.117-.35A.05.05,0,0,1,249.417,279.585Z" transform="translate(-244.995 -275.836)" fill="#f5f5f5"/>
        <path id="Caminho_104" data-name="Caminho 104" d="M277.929,294.461l.05.151h.159a.021.021,0,0,1,.013.039l-.128.094.048.152a.021.021,0,0,1-.033.024l-.129-.092-.129.092a.021.021,0,0,1-.033-.024l.048-.152-.128-.094a.021.021,0,0,1,.013-.039h.159l.05-.151A.022.022,0,0,1,277.929,294.461Z" transform="translate(-272.071 -289.806)" fill="#f5f5f5"/>
        <path id="Caminho_105" data-name="Caminho 105" d="M244.843,269.169l.05.151h.159a.021.021,0,0,1,.013.039l-.128.094.048.152a.021.021,0,0,1-.033.024l-.129-.092-.129.092a.021.021,0,0,1-.033-.024l.048-.152-.128-.094a.021.021,0,0,1,.013-.039h.159l.05-.151A.022.022,0,0,1,244.843,269.169Z" transform="translate(-241.042 -266.086)" fill="#f5f5f5"/>
        <path id="Caminho_106" data-name="Caminho 106" d="M200.035,266.226l.05.151h.159a.021.021,0,0,1,.013.039l-.128.094.048.152a.021.021,0,0,1-.033.024l-.129-.092-.129.092a.021.021,0,0,1-.033-.024l.048-.152-.128-.094a.021.021,0,0,1,.013-.039h.159l.05-.151A.022.022,0,0,1,200.035,266.226Z" transform="translate(-199.019 -263.326)" fill="#f5f5f5"/>
        <path id="Caminho_107" data-name="Caminho 107" d="M237.519,293.625l.05.151h.159a.021.021,0,0,1,.013.039l-.128.094.048.152a.021.021,0,0,1-.033.024l-.129-.092-.129.092a.021.021,0,0,1-.033-.024l.048-.152-.128-.094a.021.021,0,0,1,.013-.039h.159l.05-.151A.022.022,0,0,1,237.519,293.625Z" transform="translate(-234.173 -289.022)" fill="#f5f5f5"/>
        <path id="Caminho_108" data-name="Caminho 108" d="M217.643,264.573l.041.123h.13a.018.018,0,0,1,.01.032l-.1.077.039.124a.018.018,0,0,1-.027.02l-.106-.076-.106.076a.018.018,0,0,1-.027-.02l.039-.124-.1-.077a.018.018,0,0,1,.01-.032h.13l.041-.123A.018.018,0,0,1,217.643,264.573Z" transform="translate(-215.58 -261.778)" fill="#f5f5f5"/>
        <path id="Caminho_109" data-name="Caminho 109" d="M279.632,223.566l.051.154h.163a.022.022,0,0,1,.013.04l-.131.1.049.155a.022.022,0,0,1-.034.024l-.132-.095-.132.095a.022.022,0,0,1-.034-.024l.049-.155-.131-.1a.022.022,0,0,1,.013-.04h.163l.051-.154A.022.022,0,0,1,279.632,223.566Z" transform="translate(-273.663 -223.318)" fill="#f5f5f5"/>
        <path id="Caminho_110" data-name="Caminho 110" d="M203.665,252.434l.041.123h.13a.018.018,0,0,1,.01.032l-.1.077.039.124a.018.018,0,0,1-.027.02l-.106-.076-.106.076a.018.018,0,0,1-.027-.02l.039-.124-.1-.077a.018.018,0,0,1,.01-.032h.13l.041-.123A.017.017,0,0,1,203.665,252.434Z" transform="translate(-202.47 -250.394)" fill="#f5f5f5"/>
        <path id="Caminho_111" data-name="Caminho 111" d="M212.042,280.307l.062.187.2,0a.027.027,0,0,1,.016.048l-.158.117.059.188a.027.027,0,0,1-.041.03l-.16-.115-.16.115a.027.027,0,0,1-.041-.03l.059-.188-.158-.117a.027.027,0,0,1,.016-.048l.2,0,.062-.187A.027.027,0,0,1,212.042,280.307Z" transform="translate(-210.219 -276.528)" fill="#f5f5f5"/>
        <path id="Caminho_112" data-name="Caminho 112" d="M291.714,295.141l.039.118h.124a.017.017,0,0,1,.01.03l-.1.074.037.118a.017.017,0,0,1-.026.019l-.1-.072-.1.072a.017.017,0,0,1-.026-.019l.037-.118-.1-.074a.017.017,0,0,1,.01-.03h.124l.039-.118A.017.017,0,0,1,291.714,295.141Z" transform="translate(-285.056 -290.446)" fill="#f5f5f5"/>
        <path id="Caminho_113" data-name="Caminho 113" d="M297.783,280.661l.05.151h.159a.021.021,0,0,1,.013.039l-.128.094.048.152a.021.021,0,0,1-.033.024l-.129-.092-.129.092a.021.021,0,0,1-.033-.024l.048-.152-.128-.094a.021.021,0,0,1,.013-.039h.159l.05-.151A.022.022,0,0,1,297.783,280.661Z" transform="translate(-290.691 -276.864)" fill="#f5f5f5"/>
      </g>
    </g>    
  </g>
</svg>
